<?xml version="1.0" ?><!DOCTYPE svg  PUBLIC '-//W3C//DTD SVG 1.1//EN'  'http://www.w3.org/Graphics/SVG/1.1/DTD/svg11.dtd'><svg enable-background="new 0 0 87 56" height="56px" id="Layer_1" version="1.1" viewBox="0 0 87 56" width="87px" xml:space="preserve" xmlns="http://www.w3.org/2000/svg" xmlns:xlink="http://www.w3.org/1999/xlink"><g><path d="M83.407,1H3.593C2.161,1,1,2.059,1,3.365v49.271C1,53.941,2.161,55,3.593,55H17.04   C61.645,47.309,86,30.123,86,30.123V3.365C86,2.059,84.84,1,83.407,1z" fill="#F1F2F2"/><path d="M83.407,55C84.84,55,86,53.941,86,52.636V30.123c0,0-24.355,17.186-68.96,24.877H83.407z" fill="#F48120"/><g><radialGradient cx="743.7559" cy="91.2598" gradientTransform="matrix(1 0 0 1 -698.584 -68.918)" gradientUnits="userSpaceOnUse" id="SVGID_1_" r="6.79"><stop offset="0.0056" style="stop-color:#FFEEE0"/><stop offset="0.1096" style="stop-color:#FEE9D7"/><stop offset="0.2793" style="stop-color:#FDDBBF"/><stop offset="0.4935" style="stop-color:#FBC597"/><stop offset="0.744" style="stop-color:#F8A560"/><stop offset="1" style="stop-color:#F48120"/></radialGradient><path d="M45.182,15.63c-3.793,0-6.875,2.966-6.875,6.626c0,3.89,2.945,6.799,6.875,6.799    c3.832,0,6.856-2.947,6.856-6.724C52.038,18.577,49.034,15.63,45.182,15.63z" fill="url(#SVGID_1_)"/><path d="M6.152,15.871H2.455v12.895h3.676c1.951,0,3.363-0.464,4.599-1.488c1.468-1.22,2.34-3.056,2.34-4.952    C13.071,18.518,10.227,15.871,6.152,15.871z M9.089,25.554c-0.793,0.719-1.816,1.027-3.443,1.027H4.971v-8.526h0.676    c1.626,0,2.609,0.29,3.443,1.043c0.87,0.773,1.389,1.97,1.389,3.207C10.479,23.544,9.96,24.783,9.089,25.554z" fill="#001722"/><rect fill="#001722" height="12.895" width="2.512" x="14.232" y="15.871"/><path d="M22.893,20.817c-1.51-0.561-1.954-0.929-1.954-1.622c0-0.813,0.791-1.431,1.875-1.431    c0.754,0,1.373,0.31,2.032,1.041l1.313-1.717c-1.082-0.95-2.377-1.432-3.791-1.432c-2.278,0-4.02,1.586-4.02,3.691    c0,1.778,0.812,2.688,3.17,3.54c0.987,0.346,1.488,0.576,1.74,0.735c0.502,0.328,0.755,0.79,0.755,1.332    c0,1.044-0.832,1.816-1.955,1.816c-1.199,0-2.163-0.598-2.744-1.718l-1.623,1.567c1.158,1.698,2.55,2.455,4.466,2.455    c2.609,0,4.445-1.742,4.445-4.235C26.603,22.792,25.755,21.862,22.893,20.817z" fill="#001722"/><path d="M27.396,22.325c0,3.791,2.979,6.729,6.806,6.729c1.082,0,2.011-0.216,3.153-0.754v-2.959    c-1.007,1.005-1.896,1.411-3.037,1.411c-2.531,0-4.331-1.838-4.331-4.448c0-2.474,1.854-4.426,4.215-4.426    c1.198,0,2.106,0.425,3.153,1.449V16.37c-1.102-0.561-2.012-0.789-3.095-0.789C30.45,15.58,27.396,18.577,27.396,22.325z" fill="#001722"/><polygon fill="#001722" points="57.729,24.531 54.288,15.871 51.542,15.871 57.016,29.092 58.367,29.092 63.938,15.871     61.211,15.871   "/><polygon fill="#001722" points="65.08,28.766 72.211,28.766 72.211,26.581 67.592,26.581 67.592,23.1 72.035,23.1 72.035,20.916     67.592,20.916 67.592,18.055 72.211,18.055 72.211,15.871 65.08,15.871   "/><path d="M82.165,19.677c0-2.415-1.661-3.805-4.562-3.805h-3.731v12.894h2.517v-5.183h0.328l3.479,5.183h3.094    l-4.061-5.432C81.124,22.944,82.165,21.649,82.165,19.677z M77.119,21.805h-0.73v-3.906h0.771c1.568,0,2.42,0.658,2.42,1.913    C79.579,21.107,78.729,21.805,77.119,21.805z" fill="#001722"/><path d="M83.939,16.832c0-0.227-0.152-0.349-0.43-0.349h-0.365v1.135h0.27v-0.441l0.318,0.441h0.336l-0.377-0.469    C83.85,17.107,83.939,16.99,83.939,16.832z M83.465,16.986h-0.051v-0.295h0.055c0.133,0,0.2,0.048,0.2,0.146    C83.669,16.936,83.598,16.986,83.465,16.986z" fill="#231F20"/><path d="M83.566,16.056c-0.551,0-0.993,0.443-0.993,0.992c0,0.55,0.444,0.993,0.993,0.993    c0.537,0,0.979-0.446,0.979-0.993C84.545,16.504,84.104,16.056,83.566,16.056z M83.564,17.862c-0.441,0-0.795-0.363-0.795-0.813    c0-0.453,0.352-0.814,0.795-0.814c0.428,0,0.781,0.367,0.781,0.814C84.346,17.496,83.992,17.862,83.564,17.862z" fill="#231F20"/></g></g></svg>