<?xml version="1.0" ?><!DOCTYPE svg  PUBLIC '-//W3C//DTD SVG 1.1//EN'  'http://www.w3.org/Graphics/SVG/1.1/DTD/svg11.dtd'><svg enable-background="new 0 0 87 56" height="56px" id="Layer_1" version="1.1" viewBox="0 0 87 56" width="87px" xml:space="preserve" xmlns="http://www.w3.org/2000/svg" xmlns:xlink="http://www.w3.org/1999/xlink"><g><path d="M86,52.636C86,53.941,84.84,55,83.407,55H3.593C2.161,55,1,53.941,1,52.636V3.365C1,2.059,2.161,1,3.593,1   h79.814C84.84,1,86,2.059,86,3.365V52.636z" fill="#F1F2F2"/><g><g><path d="M61.002,14.34l4.97-0.891v19.083h-4.97V14.34z M68.261,14.34v18.193h4.975V13.45L68.261,14.34z      M53.923,32.533h4.973V18.576h-4.973V32.533z M21.059,20.549c-0.628-0.041-2.085-0.136-2.085-1.446c0-1.58,2.095-1.58,2.881-1.58     c1.381,0,3.171,0.408,4.449,0.79c0,0,0.712,0.251,1.319,0.51l0.056,0.016V18.78v-4.271l-0.077-0.023     c-1.509-0.527-3.262-1.036-6.513-1.036c-5.606,0-7.592,3.265-7.592,6.063c0,1.613,0.691,5.409,7.111,5.847     c0.545,0.033,1.988,0.116,1.988,1.47c0,1.118-1.182,1.777-3.171,1.777c-2.179,0-4.294-0.556-5.578-1.082v4.458     c1.922,0.504,4.089,0.756,6.63,0.756c5.481,0,7.936-3.089,7.936-6.15C28.415,23.114,25.667,20.858,21.059,20.549z M51.118,18.371     c-4.595,0.147-6.929,2.209-6.929,6.309v7.854h5.015v-6.405c0-2.454,0.323-3.506,3.235-3.607v-4.079     C51.947,18.339,51.118,18.371,51.118,18.371z M37.628,18.559c-0.11,0.278-0.907,2.528-2.833,4.859V13.45l-5.131,1.015v18.068     h5.131v-5.585c1.487,2.229,2.22,5.585,2.22,5.585h6.146c-0.608-2.528-3.267-7.188-3.267-7.188     c2.387-3.026,3.435-6.25,3.602-6.785L37.628,18.559L37.628,18.559z M56.407,17.236c1.354,0,2.452-1.098,2.452-2.451     c0-1.354-1.098-2.453-2.452-2.453c-1.353,0-2.449,1.099-2.449,2.453C53.958,16.14,55.055,17.236,56.407,17.236z" fill="#862165"/><g><path d="M19.189,41.919v-2.947c0-0.335-0.125-0.565-0.46-0.565c-0.26,0-0.509,0.162-0.768,0.412v3.101h-1.449v-2.947      c0-0.335-0.125-0.565-0.46-0.565c-0.269,0-0.508,0.162-0.768,0.412v3.101h-1.45v-4.703h1.276l0.106,0.643      c0.422-0.432,0.854-0.738,1.459-0.738c0.643,0,0.998,0.316,1.171,0.738c0.422-0.422,0.884-0.738,1.468-0.738      c0.874,0,1.335,0.547,1.335,1.458v3.34L19.189,41.919L19.189,41.919z"/><path d="M23.631,42.015c-1.296,0-2.246-0.931-2.246-2.438s0.96-2.456,2.255-2.456c1.306,0,2.266,0.94,2.266,2.447      S24.937,42.015,23.631,42.015z M23.641,38.31c-0.557,0-0.854,0.489-0.854,1.257c0,0.759,0.307,1.277,0.854,1.277      c0.557,0,0.864-0.51,0.864-1.267C24.505,38.818,24.198,38.31,23.641,38.31z"/><path d="M29.399,41.919v-2.947c0-0.335-0.135-0.565-0.48-0.565c-0.278,0-0.538,0.162-0.796,0.422v3.091h-1.45v-4.703h1.276      l0.106,0.643c0.422-0.413,0.874-0.738,1.469-0.738c0.873,0,1.333,0.547,1.333,1.458v3.34L29.399,41.919L29.399,41.919z"/><path d="M35.868,39.932h-2.822c0.076,0.738,0.518,1.026,1.152,1.026c0.519,0,1.027-0.191,1.545-0.488l0.144,1.018      c-0.508,0.325-1.132,0.527-1.871,0.527c-1.411,0-2.419-0.749-2.419-2.429c0-1.535,0.94-2.467,2.217-2.467      c1.44,0,2.083,1.075,2.083,2.438C35.896,39.701,35.886,39.855,35.868,39.932z M33.775,38.06c-0.404,0-0.691,0.355-0.74,1.076      h1.479C34.466,38.424,34.217,38.06,33.775,38.06z"/><path d="M39.204,42.015c-0.422,1.229-0.999,1.65-2.025,1.65c-0.289,0-0.413-0.027-0.547-0.057l-0.182-1.162      c0.154,0.048,0.297,0.079,0.576,0.079c0.326,0,0.614-0.125,0.767-0.454l0.058-0.141l-1.708-4.6l1.555-0.183l0.912,2.966      l0.863-2.897h1.402L39.204,42.015z"/><path d="M43.465,41.976c-0.759,0-1.469-0.124-2.016-0.335v-6.422l1.449-0.231v2.745c0.297-0.306,0.701-0.612,1.258-0.612      c0.959,0,1.688,0.729,1.688,2.322C45.845,41.189,44.915,41.976,43.465,41.976z M43.695,38.415c-0.307,0-0.557,0.182-0.797,0.453      v1.86c0.192,0.058,0.307,0.087,0.527,0.087c0.567,0,0.971-0.346,0.971-1.277C44.396,38.751,44.109,38.415,43.695,38.415z"/><path d="M48.656,42.015c-1.295,0-2.246-0.931-2.246-2.438s0.961-2.456,2.256-2.456c1.306,0,2.267,0.94,2.267,2.447      S49.962,42.015,48.656,42.015z M48.666,38.31c-0.557,0-0.854,0.489-0.854,1.257c0,0.759,0.306,1.277,0.854,1.277      c0.557,0,0.864-0.51,0.864-1.267C49.53,38.818,49.223,38.31,48.666,38.31z"/><path d="M53.714,42.015c-1.296,0-2.247-0.931-2.247-2.438s0.96-2.456,2.257-2.456c1.305,0,2.266,0.94,2.266,2.447      S55.019,42.015,53.714,42.015z M53.724,38.31c-0.556,0-0.854,0.489-0.854,1.257c0,0.759,0.308,1.277,0.854,1.277      c0.557,0,0.864-0.51,0.864-1.267C54.588,38.818,54.28,38.31,53.724,38.31z"/><path d="M59.567,41.985l-1.361-2.255v2.188h-1.45v-6.701l1.45-0.23v4.155l1.257-1.928h1.554l-1.478,2.141l1.536,2.42      L59.567,41.985z"/><path d="M65.451,39.932h-2.823c0.078,0.738,0.519,1.026,1.151,1.026c0.519,0,1.028-0.191,1.547-0.488l0.143,1.018      c-0.508,0.325-1.133,0.527-1.871,0.527c-1.411,0-2.418-0.749-2.418-2.429c0-1.535,0.94-2.467,2.216-2.467      c1.441,0,2.083,1.075,2.083,2.438C65.48,39.701,65.469,39.855,65.451,39.932z M63.357,38.06c-0.402,0-0.689,0.355-0.737,1.076      h1.479C64.048,38.424,63.799,38.06,63.357,38.06z"/><path d="M67.704,39.308v2.61h-1.449v-4.704h1.268l0.154,0.929c0.287-0.536,0.681-0.977,1.371-1.024l0.24,1.478      C68.588,38.646,68.061,38.924,67.704,39.308z"/><path d="M71.57,41.995c-0.747,0-1.447-0.211-1.938-0.471l0.173-1.104c0.557,0.346,1.238,0.556,1.775,0.556      c0.404,0,0.595-0.135,0.595-0.355c0-0.24-0.133-0.345-0.798-0.51c-1.178-0.306-1.678-0.624-1.678-1.507      c0-0.873,0.652-1.459,1.803-1.459c0.635,0,1.248,0.126,1.736,0.347l-0.181,1.104c-0.511-0.278-1.095-0.441-1.548-0.441      c-0.344,0-0.498,0.125-0.498,0.308c0,0.192,0.134,0.298,0.798,0.479c1.247,0.336,1.688,0.653,1.688,1.527      C73.501,41.456,72.818,41.995,71.57,41.995z"/></g></g></g></g></svg>