<?xml version="1.0" ?><!DOCTYPE svg  PUBLIC '-//W3C//DTD SVG 1.1//EN'  'http://www.w3.org/Graphics/SVG/1.1/DTD/svg11.dtd'><svg enable-background="new 0 0 87 56" height="56px" id="Layer_1" version="1.1" viewBox="0 0 87 56" width="87px" xml:space="preserve" xmlns="http://www.w3.org/2000/svg" xmlns:xlink="http://www.w3.org/1999/xlink"><g><path d="M86,52.636C86,53.941,84.84,55,83.407,55H3.593C2.161,55,1,53.941,1,52.636V3.365C1,2.059,2.161,1,3.593,1   h79.814C84.84,1,86,2.059,86,3.365V52.636z" fill="#F1F2F2"/><g><path clip-rule="evenodd" d="M10.48,22.871h5.466c2.936,0,4.042,1.485,3.87,3.673    c-0.282,3.604-2.461,5.596-5.351,5.596h-1.459c-0.396,0-0.662,0.262-0.771,0.976l-0.626,4.132    c-0.041,0.267-0.182,0.425-0.394,0.443H7.788c-0.323,0-0.437-0.245-0.353-0.781l2.094-13.254    C9.613,23.125,9.903,22.871,10.48,22.871z" fill="#009DE2" fill-rule="evenodd"/><path clip-rule="evenodd" d="M34.213,22.626c1.845,0,3.547,1.001,3.314,3.495    c-0.277,2.957-1.87,4.604-4.377,4.61h-2.186c-0.315,0-0.467,0.255-0.549,0.784l-0.423,2.69c-0.063,0.405-0.272,0.607-0.58,0.607    h-2.036c-0.324,0-0.438-0.209-0.365-0.673l1.683-10.786c0.083-0.531,0.287-0.729,0.646-0.729H34.213L34.213,22.626z M30.897,28.4    h1.658c1.037-0.039,1.726-0.757,1.794-2.053c0.045-0.8-0.497-1.372-1.356-1.368l-1.562,0.007L30.897,28.4L30.897,28.4z     M43.062,33.985c0.187-0.168,0.375-0.257,0.349-0.048l-0.067,0.499c-0.033,0.262,0.071,0.4,0.313,0.4h1.81    c0.304,0,0.452-0.123,0.526-0.595l1.116-6.996c0.056-0.352-0.03-0.523-0.296-0.523h-1.989c-0.181,0-0.268,0.101-0.313,0.374    l-0.075,0.431c-0.037,0.225-0.141,0.264-0.236,0.038c-0.338-0.8-1.197-1.158-2.404-1.133c-2.791,0.058-4.671,2.175-4.874,4.891    c-0.154,2.1,1.35,3.749,3.333,3.749C41.694,35.072,42.337,34.643,43.062,33.985L43.062,33.985z M41.549,32.911    c-1.201,0-2.038-0.958-1.863-2.133c0.175-1.174,1.297-2.132,2.498-2.132c1.202,0,2.04,0.958,1.864,2.132    C43.872,31.953,42.749,32.911,41.549,32.911L41.549,32.911z M50.65,26.699h-1.826c-0.379,0-0.534,0.278-0.413,0.631l2.277,6.668    l-2.243,3.173c-0.188,0.264-0.043,0.507,0.221,0.507h2.063c0.308,0,0.459-0.078,0.612-0.302l7.003-10.046    c0.217-0.31,0.116-0.634-0.24-0.634l-1.946-0.003c-0.337,0-0.468,0.133-0.663,0.411l-2.922,4.237l-1.298-4.245    C51.194,26.835,51.002,26.699,50.65,26.699z" fill="#113984" fill-rule="evenodd"/><path clip-rule="evenodd" d="M65.634,22.626c1.845,0,3.547,1.001,3.315,3.495    c-0.277,2.957-1.869,4.604-4.377,4.61h-2.185c-0.316,0-0.469,0.255-0.552,0.784l-0.421,2.69c-0.064,0.405-0.272,0.607-0.58,0.607    h-2.036c-0.326,0-0.439-0.209-0.367-0.673l1.684-10.786c0.084-0.531,0.286-0.729,0.646-0.729H65.634L65.634,22.626z M62.317,28.4    h1.659c1.036-0.039,1.727-0.757,1.796-2.053c0.042-0.8-0.496-1.372-1.358-1.368l-1.561,0.007L62.317,28.4L62.317,28.4z     M74.482,33.985c0.187-0.168,0.376-0.257,0.351-0.048l-0.067,0.499c-0.035,0.262,0.068,0.4,0.313,0.4h1.808    c0.305,0,0.455-0.123,0.528-0.595l1.116-6.996c0.056-0.352-0.029-0.523-0.298-0.523h-1.987c-0.182,0-0.267,0.101-0.313,0.374    l-0.075,0.431c-0.037,0.225-0.142,0.264-0.236,0.038c-0.338-0.8-1.2-1.158-2.406-1.133c-2.789,0.058-4.671,2.175-4.872,4.891    c-0.155,2.1,1.351,3.749,3.333,3.749C73.116,35.072,73.76,34.643,74.482,33.985L74.482,33.985z M72.971,32.911    c-1.202,0-2.039-0.958-1.865-2.133c0.177-1.174,1.298-2.132,2.5-2.132c1.198,0,2.036,0.958,1.861,2.132    C75.294,31.953,74.171,32.911,72.971,32.911L72.971,32.911z M81.314,34.85h-2.088c-0.168,0-0.28-0.13-0.257-0.29l1.836-11.619    c0.025-0.159,0.182-0.289,0.349-0.289h2.087c0.164,0,0.28,0.13,0.256,0.289L81.661,34.56C81.636,34.72,81.479,34.85,81.314,34.85z    " fill="#009DE2" fill-rule="evenodd"/><path clip-rule="evenodd" d="M7.062,18.31h5.473c1.542,0,3.369,0.05,4.592,1.129    c0.816,0.721,1.245,1.868,1.147,3.101c-0.336,4.179-2.836,6.519-6.188,6.519H9.388c-0.46,0-0.764,0.306-0.894,1.129l-0.752,4.791    c-0.049,0.313-0.184,0.495-0.43,0.517H3.94c-0.374,0-0.507-0.287-0.409-0.906L5.959,19.22C6.056,18.604,6.393,18.31,7.062,18.31z" fill="#113984" fill-rule="evenodd"/><path clip-rule="evenodd" d="M8.573,29.704l0.956-6.049c0.084-0.53,0.374-0.784,0.952-0.784    h5.466c0.905,0,1.637,0.142,2.21,0.402c-0.55,3.719-2.956,5.784-6.105,5.784H9.353C8.998,29.058,8.732,29.24,8.573,29.704z" fill="#172C70" fill-rule="evenodd"/></g></g></svg>